<svg width="1600" height="980" viewBox="0 0 1600 980" fill="none" xmlns="http://www.w3.org/2000/svg">
  <rect width="1600" height="980" fill="#F4F7FB"/>
  <text x="70" y="70" fill="#102246" font-family="Segoe UI, Arial, sans-serif" font-size="34" font-weight="700">FetchhIt Architecture and Workflow</text>

  <rect x="60" y="110" width="700" height="800" rx="28" fill="#FFFFFF" stroke="#D7E2F0" stroke-width="2"/>
  <text x="95" y="160" fill="#102246" font-family="Segoe UI, Arial, sans-serif" font-size="28" font-weight="700">Architecture</text>

  <rect x="110" y="220" width="180" height="72" rx="18" fill="#12315E"/>
  <text x="168" y="264" fill="white" font-family="Segoe UI, Arial, sans-serif" font-size="24" font-weight="700">User</text>

  <rect x="360" y="220" width="250" height="90" rx="18" fill="#15758D"/>
  <text x="412" y="255" fill="white" font-family="Segoe UI, Arial, sans-serif" font-size="24" font-weight="700">Frontend UI</text>
  <text x="410" y="285" fill="#DFF8FF" font-family="Segoe UI, Arial, sans-serif" font-size="18">HTML • CSS • JavaScript</text>

  <rect x="360" y="390" width="250" height="90" rx="18" fill="#12315E"/>
  <text x="411" y="425" fill="white" font-family="Segoe UI, Arial, sans-serif" font-size="24" font-weight="700">Django Backend</text>
  <text x="441" y="455" fill="#DCE7FF" font-family="Segoe UI, Arial, sans-serif" font-size="18">Views + APIs</text>

  <rect x="110" y="560" width="220" height="90" rx="18" fill="#FFFFFF" stroke="#B8CAE0" stroke-width="2"/>
  <text x="156" y="596" fill="#102246" font-family="Segoe UI, Arial, sans-serif" font-size="24" font-weight="700">Database</text>
  <text x="136" y="626" fill="#5E708C" font-family="Segoe UI, Arial, sans-serif" font-size="18">User + UserProfile</text>

  <rect x="380" y="560" width="220" height="90" rx="18" fill="#FFFFFF" stroke="#B8CAE0" stroke-width="2"/>
  <text x="412" y="596" fill="#102246" font-family="Segoe UI, Arial, sans-serif" font-size="24" font-weight="700">Local Storage</text>
  <text x="422" y="626" fill="#5E708C" font-family="Segoe UI, Arial, sans-serif" font-size="18">Products + Requests</text>

  <rect x="110" y="730" width="220" height="90" rx="18" fill="#FFFFFF" stroke="#B8CAE0" stroke-width="2"/>
  <text x="149" y="766" fill="#102246" font-family="Segoe UI, Arial, sans-serif" font-size="24" font-weight="700">Static Assets</text>
  <text x="155" y="796" fill="#5E708C" font-family="Segoe UI, Arial, sans-serif" font-size="18">Images + CSS + JS</text>

  <rect x="380" y="730" width="220" height="90" rx="18" fill="#FFFFFF" stroke="#B8CAE0" stroke-width="2"/>
  <text x="433" y="766" fill="#102246" font-family="Segoe UI, Arial, sans-serif" font-size="24" font-weight="700">AI Suggest</text>
  <text x="420" y="796" fill="#5E708C" font-family="Segoe UI, Arial, sans-serif" font-size="18">Recommendation API</text>

  <line x1="290" y1="256" x2="360" y2="256" stroke="#5A6E8C" stroke-width="4"/>
  <polygon points="360,256 344,248 344,264" fill="#5A6E8C"/>

  <line x1="485" y1="310" x2="485" y2="390" stroke="#5A6E8C" stroke-width="4"/>
  <polygon points="485,390 477,374 493,374" fill="#5A6E8C"/>

  <line x1="420" y1="480" x2="260" y2="560" stroke="#5A6E8C" stroke-width="4"/>
  <polygon points="260,560 271,547 278,562" fill="#5A6E8C"/>

  <line x1="490" y1="480" x2="490" y2="560" stroke="#5A6E8C" stroke-width="4"/>
  <polygon points="490,560 482,544 498,544" fill="#5A6E8C"/>

  <line x1="430" y1="470" x2="260" y2="730" stroke="#5A6E8C" stroke-width="4"/>
  <polygon points="260,730 270,716 283,725" fill="#5A6E8C"/>

  <line x1="540" y1="470" x2="490" y2="730" stroke="#5A6E8C" stroke-width="4"/>
  <polygon points="490,730 485,712 501,715" fill="#5A6E8C"/>

  <rect x="840" y="110" width="700" height="800" rx="28" fill="#FFFFFF" stroke="#D7E2F0" stroke-width="2"/>
  <text x="875" y="160" fill="#102246" font-family="Segoe UI, Arial, sans-serif" font-size="28" font-weight="700">Workflow</text>

  <rect x="900" y="210" width="220" height="74" rx="18" fill="#12315E"/>
  <text x="963" y="255" fill="white" font-family="Segoe UI, Arial, sans-serif" font-size="24" font-weight="700">User Opens App</text>

  <rect x="1180" y="210" width="250" height="74" rx="18" fill="#15758D"/>
  <text x="1230" y="255" fill="white" font-family="Segoe UI, Arial, sans-serif" font-size="24" font-weight="700">Login / Register</text>

  <rect x="900" y="360" width="240" height="84" rx="18" fill="#FFFFFF" stroke="#B8CAE0" stroke-width="2"/>
  <text x="971" y="396" fill="#102246" font-family="Segoe UI, Arial, sans-serif" font-size="24" font-weight="700">Buyer Flow</text>
  <text x="946" y="426" fill="#5E708C" font-family="Segoe UI, Arial, sans-serif" font-size="18">Browse, search, filter</text>

  <rect x="1190" y="360" width="250" height="84" rx="18" fill="#FFFFFF" stroke="#B8CAE0" stroke-width="2"/>
  <text x="1262" y="396" fill="#102246" font-family="Segoe UI, Arial, sans-serif" font-size="24" font-weight="700">Seller Flow</text>
  <text x="1238" y="426" fill="#5E708C" font-family="Segoe UI, Arial, sans-serif" font-size="18">Post and manage items</text>

  <rect x="900" y="520" width="240" height="96" rx="18" fill="#F8FBFF" stroke="#B8CAE0" stroke-width="2"/>
  <text x="936" y="558" fill="#102246" font-family="Segoe UI, Arial, sans-serif" font-size="22" font-weight="700">Request Deal</text>
  <text x="930" y="587" fill="#5E708C" font-family="Segoe UI, Arial, sans-serif" font-size="18">Buyer enters offer,</text>
  <text x="928" y="611" fill="#5E708C" font-family="Segoe UI, Arial, sans-serif" font-size="18">address and payment</text>

  <rect x="1190" y="520" width="250" height="96" rx="18" fill="#F8FBFF" stroke="#B8CAE0" stroke-width="2"/>
  <text x="1232" y="558" fill="#102246" font-family="Segoe UI, Arial, sans-serif" font-size="22" font-weight="700">Incoming Requests</text>
  <text x="1242" y="587" fill="#5E708C" font-family="Segoe UI, Arial, sans-serif" font-size="18">Seller reviews</text>
  <text x="1224" y="611" fill="#5E708C" font-family="Segoe UI, Arial, sans-serif" font-size="18">buyer request details</text>

  <rect x="1040" y="690" width="300" height="110" rx="22" fill="#12315E"/>
  <text x="1137" y="734" fill="white" font-family="Segoe UI, Arial, sans-serif" font-size="24" font-weight="700">Decision</text>
  <text x="1092" y="766" fill="#DCE7FF" font-family="Segoe UI, Arial, sans-serif" font-size="19">Accept or Reject Request</text>

  <line x1="1120" y1="247" x2="1180" y2="247" stroke="#5A6E8C" stroke-width="4"/>
  <polygon points="1180,247 1164,239 1164,255" fill="#5A6E8C"/>

  <line x1="1305" y1="284" x2="1305" y2="360" stroke="#5A6E8C" stroke-width="4"/>
  <polygon points="1305,360 1297,344 1313,344" fill="#5A6E8C"/>

  <line x1="1255" y1="247" x2="1030" y2="360" stroke="#5A6E8C" stroke-width="4"/>
  <polygon points="1030,360 1040,346 1047,361" fill="#5A6E8C"/>

  <line x1="1020" y1="444" x2="1020" y2="520" stroke="#5A6E8C" stroke-width="4"/>
  <polygon points="1020,520 1012,504 1028,504" fill="#5A6E8C"/>

  <line x1="1315" y1="444" x2="1315" y2="520" stroke="#5A6E8C" stroke-width="4"/>
  <polygon points="1315,520 1307,504 1323,504" fill="#5A6E8C"/>

  <line x1="1140" y1="610" x2="1105" y2="690" stroke="#5A6E8C" stroke-width="4"/>
  <polygon points="1105,690 1103,673 1118,679" fill="#5A6E8C"/>

  <line x1="1270" y1="616" x2="1270" y2="690" stroke="#5A6E8C" stroke-width="4"/>
  <polygon points="1270,690 1262,674 1278,674" fill="#5A6E8C"/>

  <text x="1090" y="865" fill="#5E708C" font-family="Segoe UI, Arial, sans-serif" font-size="20">Buyer requests ? Seller reviews ? Seller accepts/rejects</text>
</svg>
