<svg xmlns="http://www.w3.org/2000/svg" width="900" height="600" viewBox="0 0 900 600" role="img" aria-label="Earbuds">
  <defs>
    <linearGradient id="g6" x1="0" x2="1" y1="0" y2="1">
      <stop offset="0" stop-color="#2874f0" stop-opacity="0.18"/>
      <stop offset="1" stop-color="#10b981" stop-opacity="0.14"/>
    </linearGradient>
    <filter id="s6" x="-20%" y="-20%" width="140%" height="140%">
      <feDropShadow dx="0" dy="10" stdDeviation="14" flood-color="#111827" flood-opacity="0.16"/>
    </filter>
  </defs>
  <rect width="900" height="600" fill="#f8fafc"/>
  <rect x="54" y="54" width="792" height="492" rx="32" fill="url(#g6)" stroke="#e5e7eb"/>
  <g filter="url(#s6)">
    <path d="M330 205c0-45 36-82 82-82h12c45 0 82 37 82 82v60c0 38-30 68-68 68h-40c-38 0-68-30-68-68z" fill="#111827"/>
    <rect x="354" y="270" width="168" height="172" rx="42" fill="#1f2937"/>
    <circle cx="438" cy="330" r="34" fill="#0b1220"/>
    <circle cx="438" cy="330" r="18" fill="#2874f0" opacity="0.65"/>

    <path d="M520 205c0-45 36-82 82-82h12c45 0 82 37 82 82v60c0 38-30 68-68 68h-40c-38 0-68-30-68-68z" fill="#111827" opacity="0.95"/>
    <rect x="544" y="270" width="168" height="172" rx="42" fill="#1f2937" opacity="0.98"/>
    <circle cx="628" cy="330" r="34" fill="#0b1220"/>
    <circle cx="628" cy="330" r="18" fill="#10b981" opacity="0.55"/>
  </g>
  <text x="74" y="520" font-family="Inter, Arial, sans-serif" font-size="22" fill="#6b7280">FetchhIt " Electronics</text>
</svg>

