<svg xmlns="http://www.w3.org/2000/svg" width="900" height="600" viewBox="0 0 900 600" role="img" aria-label="Mobile phone">
  <defs>
    <linearGradient id="g1" x1="0" x2="1" y1="0" y2="1">
      <stop offset="0" stop-color="#2874f0" stop-opacity="0.22"/>
      <stop offset="1" stop-color="#ffe500" stop-opacity="0.18"/>
    </linearGradient>
    <filter id="s" x="-20%" y="-20%" width="140%" height="140%">
      <feDropShadow dx="0" dy="10" stdDeviation="14" flood-color="#111827" flood-opacity="0.18"/>
    </filter>
  </defs>
  <rect width="900" height="600" fill="#f8fafc"/>
  <rect x="54" y="54" width="792" height="492" rx="32" fill="url(#g1)" stroke="#e5e7eb"/>
  <g filter="url(#s)">
    <rect x="310" y="98" width="280" height="404" rx="36" fill="#111827"/>
    <rect x="326" y="128" width="248" height="332" rx="24" fill="#0b1220"/>
    <circle cx="450" cy="476" r="14" fill="#1f2937"/>
    <rect x="420" y="112" width="60" height="8" rx="4" fill="#374151"/>
    <circle cx="494" cy="116" r="4" fill="#4b5563"/>
    <g opacity="0.9">
      <rect x="346" y="156" width="208" height="44" rx="14" fill="#1f5fd0" opacity="0.5"/>
      <rect x="346" y="214" width="164" height="16" rx="8" fill="#94a3b8"/>
      <rect x="346" y="240" width="192" height="16" rx="8" fill="#94a3b8" opacity="0.8"/>
      <rect x="346" y="330" width="208" height="70" rx="18" fill="#ffffff" opacity="0.12"/>
    </g>
  </g>
  <text x="74" y="520" font-family="Inter, Arial, sans-serif" font-size="22" fill="#6b7280">FetchhIt " Mobiles</text>
</svg>

