<svg xmlns="http://www.w3.org/2000/svg" width="900" height="600" viewBox="0 0 900 600" role="img" aria-label="Sneakers">
  <defs>
    <linearGradient id="g2" x1="0" x2="1" y1="0" y2="1">
      <stop offset="0" stop-color="#ec4899" stop-opacity="0.20"/>
      <stop offset="1" stop-color="#2874f0" stop-opacity="0.18"/>
    </linearGradient>
    <filter id="s2" x="-20%" y="-20%" width="140%" height="140%">
      <feDropShadow dx="0" dy="10" stdDeviation="14" flood-color="#111827" flood-opacity="0.16"/>
    </filter>
  </defs>
  <rect width="900" height="600" fill="#f8fafc"/>
  <rect x="54" y="54" width="792" height="492" rx="32" fill="url(#g2)" stroke="#e5e7eb"/>
  <g filter="url(#s2)">
    <path d="M200 370c70 10 120-20 165-65 20-20 40-24 62-10 45 30 95 65 185 70 65 4 120 20 150 60v55H200z" fill="#111827"/>
    <path d="M235 342c55 8 92-18 130-55 18-18 30-18 48-6 45 30 90 60 158 66 48 4 88 14 112 38v18H235z" fill="#1f2937"/>
    <path d="M270 305l70 45" stroke="#94a3b8" stroke-width="10" stroke-linecap="round"/>
    <path d="M300 286l78 50" stroke="#94a3b8" stroke-width="10" stroke-linecap="round" opacity="0.75"/>
    <path d="M345 270l72 46" stroke="#94a3b8" stroke-width="10" stroke-linecap="round" opacity="0.6"/>
    <rect x="210" y="425" width="560" height="18" rx="9" fill="#e5e7eb"/>
    <rect x="210" y="450" width="420" height="10" rx="5" fill="#cbd5e1"/>
  </g>
  <text x="74" y="520" font-family="Inter, Arial, sans-serif" font-size="22" fill="#6b7280">FetchhIt " Fashion</text>
</svg>

