<svg xmlns="http://www.w3.org/2000/svg" width="900" height="600" viewBox="0 0 900 600" role="img" aria-label="Washing machine">
  <defs>
    <linearGradient id="g5" x1="0" x2="1" y1="0" y2="1">
      <stop offset="0" stop-color="#8b5cf6" stop-opacity="0.20"/>
      <stop offset="1" stop-color="#10b981" stop-opacity="0.14"/>
    </linearGradient>
    <filter id="s5" x="-20%" y="-20%" width="140%" height="140%">
      <feDropShadow dx="0" dy="10" stdDeviation="14" flood-color="#111827" flood-opacity="0.16"/>
    </filter>
  </defs>
  <rect width="900" height="600" fill="#f8fafc"/>
  <rect x="54" y="54" width="792" height="492" rx="32" fill="url(#g5)" stroke="#e5e7eb"/>
  <g filter="url(#s5)">
    <rect x="310" y="150" width="280" height="330" rx="28" fill="#111827"/>
    <rect x="336" y="176" width="228" height="54" rx="16" fill="#1f2937"/>
    <circle cx="526" cy="203" r="10" fill="#94a3b8"/>
    <rect x="352" y="194" width="120" height="18" rx="9" fill="#94a3b8" opacity="0.9"/>
    <circle cx="450" cy="340" r="96" fill="#0b1220"/>
    <circle cx="450" cy="340" r="74" fill="#111827"/>
    <path d="M410 350c25 30 70 40 100 10" fill="none" stroke="#2874f0" stroke-width="10" stroke-linecap="round" opacity="0.75"/>
    <path d="M396 330c14-34 70-52 118-26" fill="none" stroke="#10b981" stroke-width="10" stroke-linecap="round" opacity="0.55"/>
    <rect x="330" y="468" width="240" height="18" rx="9" fill="#1f2937"/>
  </g>
  <text x="74" y="520" font-family="Inter, Arial, sans-serif" font-size="22" fill="#6b7280">FetchhIt " Appliances</text>
</svg>

